<mxfile host="app.diagrams.net" agent="Mozilla/5.0 (Macintosh; Intel Mac OS X 10_15_7) AppleWebKit/537.36 (KHTML, like Gecko) Chrome/130.0.0.0 Safari/537.36" version="24.8.6">
  <diagram name="Page-1" id="yE-5mK7Iul5TEM4IMZbX">
    <mxGraphModel dx="311" dy="207" grid="0" gridSize="10" guides="1" tooltips="1" connect="1" arrows="1" fold="1" page="1" pageScale="1" pageWidth="850" pageHeight="1100" math="0" shadow="0">
      <root>
        <mxCell id="0" />
        <mxCell id="1" parent="0" />
        <mxCell id="m8NT_NiFbOsxPsSB8WM--3" style="edgeStyle=orthogonalEdgeStyle;rounded=0;orthogonalLoop=1;jettySize=auto;html=1;exitX=0.5;exitY=0;exitDx=0;exitDy=0;entryX=0.5;entryY=1;entryDx=0;entryDy=0;strokeColor=#FF3333;" parent="1" source="jHUoFnpFTbUiWv8qdNk--1" target="m8NT_NiFbOsxPsSB8WM--1" edge="1">
          <mxGeometry relative="1" as="geometry" />
        </mxCell>
        <mxCell id="jHUoFnpFTbUiWv8qdNk--1" value="&lt;font style=&quot;font-size: 10px;&quot;&gt;suppliers&lt;/font&gt;" style="shape=datastore;whiteSpace=wrap;html=1;" parent="1" vertex="1">
          <mxGeometry x="118" y="332" width="51" height="53" as="geometry" />
        </mxCell>
        <mxCell id="jHUoFnpFTbUiWv8qdNk--2" value="AI" style="swimlane;whiteSpace=wrap;html=1;" parent="1" vertex="1">
          <mxGeometry x="230" y="291" width="347" height="379" as="geometry" />
        </mxCell>
        <mxCell id="jHUoFnpFTbUiWv8qdNk--13" style="edgeStyle=orthogonalEdgeStyle;rounded=0;orthogonalLoop=1;jettySize=auto;html=1;exitX=0.5;exitY=1;exitDx=0;exitDy=0;entryX=0.5;entryY=0;entryDx=0;entryDy=0;" parent="jHUoFnpFTbUiWv8qdNk--2" source="jHUoFnpFTbUiWv8qdNk--6" target="jHUoFnpFTbUiWv8qdNk--9" edge="1">
          <mxGeometry relative="1" as="geometry" />
        </mxCell>
        <mxCell id="jHUoFnpFTbUiWv8qdNk--6" value="" style="shape=image;verticalLabelPosition=bottom;labelBackgroundColor=default;verticalAlign=top;aspect=fixed;imageAspect=0;image=https://png.pngtree.com/png-vector/20190226/ourmid/pngtree-fire-logo-icon-design-template-vector-png-image_705402.jpg;" parent="jHUoFnpFTbUiWv8qdNk--2" vertex="1">
          <mxGeometry x="33" y="101" width="50" height="50" as="geometry" />
        </mxCell>
        <mxCell id="jHUoFnpFTbUiWv8qdNk--23" style="edgeStyle=orthogonalEdgeStyle;rounded=0;orthogonalLoop=1;jettySize=auto;html=1;" parent="jHUoFnpFTbUiWv8qdNk--2" source="jHUoFnpFTbUiWv8qdNk--9" target="jHUoFnpFTbUiWv8qdNk--22" edge="1">
          <mxGeometry relative="1" as="geometry" />
        </mxCell>
        <mxCell id="jHUoFnpFTbUiWv8qdNk--9" value="&lt;font style=&quot;font-size: 8px;&quot;&gt;List&lt;/font&gt;" style="swimlane;fontStyle=0;childLayout=stackLayout;horizontal=1;startSize=30;horizontalStack=0;resizeParent=1;resizeParentMax=0;resizeLast=0;collapsible=1;marginBottom=0;whiteSpace=wrap;html=1;" parent="jHUoFnpFTbUiWv8qdNk--2" vertex="1">
          <mxGeometry x="33" y="164" width="50" height="50" as="geometry" />
        </mxCell>
        <mxCell id="jHUoFnpFTbUiWv8qdNk--10" value="&lt;font style=&quot;font-size: 8px;&quot;&gt;hotel urls&lt;/font&gt;" style="text;strokeColor=none;fillColor=none;align=center;verticalAlign=middle;spacingLeft=4;spacingRight=4;overflow=hidden;points=[[0,0.5],[1,0.5]];portConstraint=eastwest;rotatable=0;whiteSpace=wrap;html=1;" parent="jHUoFnpFTbUiWv8qdNk--9" vertex="1">
          <mxGeometry y="30" width="50" height="20" as="geometry" />
        </mxCell>
        <mxCell id="JJVJ3zs6qaF_fTZgvXQn-6" style="edgeStyle=orthogonalEdgeStyle;rounded=0;orthogonalLoop=1;jettySize=auto;html=1;" edge="1" parent="jHUoFnpFTbUiWv8qdNk--2" source="jHUoFnpFTbUiWv8qdNk--14" target="jHUoFnpFTbUiWv8qdNk--6">
          <mxGeometry relative="1" as="geometry" />
        </mxCell>
        <mxCell id="jHUoFnpFTbUiWv8qdNk--14" value="" style="sketch=0;points=[[0,0,0],[0.25,0,0],[0.5,0,0],[0.75,0,0],[1,0,0],[0,1,0],[0.25,1,0],[0.5,1,0],[0.75,1,0],[1,1,0],[0,0.25,0],[0,0.5,0],[0,0.75,0],[1,0.25,0],[1,0.5,0],[1,0.75,0]];outlineConnect=0;fontColor=#232F3E;fillColor=#01A88D;strokeColor=#ffffff;dashed=0;verticalLabelPosition=bottom;verticalAlign=top;align=center;html=1;fontSize=12;fontStyle=0;aspect=fixed;shape=mxgraph.aws4.resourceIcon;resIcon=mxgraph.aws4.augmented_ai;" parent="jHUoFnpFTbUiWv8qdNk--2" vertex="1">
          <mxGeometry x="44" y="32" width="28" height="28" as="geometry" />
        </mxCell>
        <mxCell id="9gf4I2wVAH5HwH8cdVLE-22" style="edgeStyle=orthogonalEdgeStyle;rounded=0;orthogonalLoop=1;jettySize=auto;html=1;entryX=0;entryY=0.25;entryDx=0;entryDy=0;" parent="jHUoFnpFTbUiWv8qdNk--2" source="jHUoFnpFTbUiWv8qdNk--22" target="9gf4I2wVAH5HwH8cdVLE-3" edge="1">
          <mxGeometry relative="1" as="geometry" />
        </mxCell>
        <mxCell id="jHUoFnpFTbUiWv8qdNk--22" value="" style="sketch=0;outlineConnect=0;fontColor=#232F3E;gradientColor=none;fillColor=#E7157B;strokeColor=none;dashed=0;verticalLabelPosition=bottom;verticalAlign=top;align=center;html=1;fontSize=12;fontStyle=0;aspect=fixed;pointerEvents=1;shape=mxgraph.aws4.documents;" parent="jHUoFnpFTbUiWv8qdNk--2" vertex="1">
          <mxGeometry x="37.08" y="266" width="41.85" height="51" as="geometry" />
        </mxCell>
        <mxCell id="9gf4I2wVAH5HwH8cdVLE-8" style="edgeStyle=orthogonalEdgeStyle;rounded=0;orthogonalLoop=1;jettySize=auto;html=1;exitX=0.5;exitY=1;exitDx=0;exitDy=0;entryX=0.5;entryY=0;entryDx=0;entryDy=0;" parent="jHUoFnpFTbUiWv8qdNk--2" source="9gf4I2wVAH5HwH8cdVLE-3" target="9gf4I2wVAH5HwH8cdVLE-7" edge="1">
          <mxGeometry relative="1" as="geometry" />
        </mxCell>
        <mxCell id="9gf4I2wVAH5HwH8cdVLE-3" value="" style="shape=image;verticalLabelPosition=bottom;labelBackgroundColor=default;verticalAlign=top;aspect=fixed;imageAspect=0;image=https://i.pinimg.com/originals/2a/62/c3/2a62c34e0d217a7aa14645ce114d84b3.png;" parent="jHUoFnpFTbUiWv8qdNk--2" vertex="1">
          <mxGeometry x="204" y="32" width="64" height="64" as="geometry" />
        </mxCell>
        <mxCell id="9gf4I2wVAH5HwH8cdVLE-10" style="edgeStyle=orthogonalEdgeStyle;rounded=0;orthogonalLoop=1;jettySize=auto;html=1;" parent="jHUoFnpFTbUiWv8qdNk--2" source="9gf4I2wVAH5HwH8cdVLE-7" target="9gf4I2wVAH5HwH8cdVLE-9" edge="1">
          <mxGeometry relative="1" as="geometry" />
        </mxCell>
        <mxCell id="9gf4I2wVAH5HwH8cdVLE-7" value="" style="shape=image;verticalLabelPosition=bottom;labelBackgroundColor=default;verticalAlign=top;aspect=fixed;imageAspect=0;image=https://i.pinimg.com/originals/2a/62/c3/2a62c34e0d217a7aa14645ce114d84b3.png;" parent="jHUoFnpFTbUiWv8qdNk--2" vertex="1">
          <mxGeometry x="204" y="119" width="64" height="64" as="geometry" />
        </mxCell>
        <mxCell id="yirHqXvrX9kjXxY1m1HK-3" style="edgeStyle=orthogonalEdgeStyle;rounded=0;orthogonalLoop=1;jettySize=auto;html=1;entryX=0.5;entryY=0;entryDx=0;entryDy=0;" parent="jHUoFnpFTbUiWv8qdNk--2" source="9gf4I2wVAH5HwH8cdVLE-9" target="9gf4I2wVAH5HwH8cdVLE-13" edge="1">
          <mxGeometry relative="1" as="geometry">
            <Array as="points">
              <mxPoint x="236" y="289" />
              <mxPoint x="202" y="289" />
            </Array>
          </mxGeometry>
        </mxCell>
        <mxCell id="yirHqXvrX9kjXxY1m1HK-4" style="edgeStyle=orthogonalEdgeStyle;rounded=0;orthogonalLoop=1;jettySize=auto;html=1;entryX=0.5;entryY=0;entryDx=0;entryDy=0;" parent="jHUoFnpFTbUiWv8qdNk--2" source="9gf4I2wVAH5HwH8cdVLE-9" target="yirHqXvrX9kjXxY1m1HK-1" edge="1">
          <mxGeometry relative="1" as="geometry">
            <Array as="points">
              <mxPoint x="236" y="289" />
              <mxPoint x="272" y="289" />
            </Array>
          </mxGeometry>
        </mxCell>
        <mxCell id="9gf4I2wVAH5HwH8cdVLE-9" value="" style="shape=image;verticalLabelPosition=bottom;labelBackgroundColor=default;verticalAlign=top;aspect=fixed;imageAspect=0;image=https://i.pinimg.com/originals/2a/62/c3/2a62c34e0d217a7aa14645ce114d84b3.png;" parent="jHUoFnpFTbUiWv8qdNk--2" vertex="1">
          <mxGeometry x="204" y="212" width="64" height="64" as="geometry" />
        </mxCell>
        <mxCell id="jHUoFnpFTbUiWv8qdNk--24" value="20" style="text;html=1;align=center;verticalAlign=middle;resizable=0;points=[];autosize=1;strokeColor=none;fillColor=none;" parent="jHUoFnpFTbUiWv8qdNk--2" vertex="1">
          <mxGeometry x="48" y="225" width="40" height="30" as="geometry" />
        </mxCell>
        <mxCell id="9gf4I2wVAH5HwH8cdVLE-13" value="" style="shape=image;verticalLabelPosition=bottom;labelBackgroundColor=default;verticalAlign=top;aspect=fixed;imageAspect=0;image=https://i.pinimg.com/originals/2a/62/c3/2a62c34e0d217a7aa14645ce114d84b3.png;" parent="jHUoFnpFTbUiWv8qdNk--2" vertex="1">
          <mxGeometry x="170" y="299" width="64" height="64" as="geometry" />
        </mxCell>
        <mxCell id="9gf4I2wVAH5HwH8cdVLE-20" value="" style="endArrow=none;html=1;rounded=0;strokeColor=#1F17FF;" parent="jHUoFnpFTbUiWv8qdNk--2" target="9gf4I2wVAH5HwH8cdVLE-7" edge="1">
          <mxGeometry width="50" height="50" relative="1" as="geometry">
            <mxPoint x="160" y="324" as="sourcePoint" />
            <mxPoint x="180" y="151" as="targetPoint" />
            <Array as="points">
              <mxPoint x="160" y="151" />
            </Array>
          </mxGeometry>
        </mxCell>
        <mxCell id="9gf4I2wVAH5HwH8cdVLE-21" value="" style="endArrow=none;html=1;rounded=0;entryX=0.156;entryY=0.578;entryDx=0;entryDy=0;entryPerimeter=0;strokeColor=#1F17FF;" parent="jHUoFnpFTbUiWv8qdNk--2" target="9gf4I2wVAH5HwH8cdVLE-3" edge="1">
          <mxGeometry width="50" height="50" relative="1" as="geometry">
            <mxPoint x="160" y="253" as="sourcePoint" />
            <mxPoint x="170" y="79" as="targetPoint" />
            <Array as="points">
              <mxPoint x="160" y="69" />
            </Array>
          </mxGeometry>
        </mxCell>
        <mxCell id="9gf4I2wVAH5HwH8cdVLE-23" value="" style="endArrow=none;dashed=1;html=1;dashPattern=1 3;strokeWidth=2;rounded=0;" parent="jHUoFnpFTbUiWv8qdNk--2" edge="1">
          <mxGeometry width="50" height="50" relative="1" as="geometry">
            <mxPoint x="16" y="329" as="sourcePoint" />
            <mxPoint x="16" y="69" as="targetPoint" />
          </mxGeometry>
        </mxCell>
        <mxCell id="9gf4I2wVAH5HwH8cdVLE-24" value="" style="endArrow=none;dashed=1;html=1;dashPattern=1 3;strokeWidth=2;rounded=0;" parent="jHUoFnpFTbUiWv8qdNk--2" edge="1">
          <mxGeometry width="50" height="50" relative="1" as="geometry">
            <mxPoint x="100" y="329" as="sourcePoint" />
            <mxPoint x="100" y="67" as="targetPoint" />
          </mxGeometry>
        </mxCell>
        <mxCell id="9gf4I2wVAH5HwH8cdVLE-26" value="" style="endArrow=none;dashed=1;html=1;dashPattern=1 3;strokeWidth=2;rounded=0;" parent="jHUoFnpFTbUiWv8qdNk--2" edge="1">
          <mxGeometry width="50" height="50" relative="1" as="geometry">
            <mxPoint x="20" y="329" as="sourcePoint" />
            <mxPoint x="100" y="329" as="targetPoint" />
          </mxGeometry>
        </mxCell>
        <mxCell id="9gf4I2wVAH5HwH8cdVLE-19" value="" style="endArrow=none;html=1;rounded=0;strokeColor=#1F17FF;" parent="jHUoFnpFTbUiWv8qdNk--2" target="9gf4I2wVAH5HwH8cdVLE-9" edge="1">
          <mxGeometry width="50" height="50" relative="1" as="geometry">
            <mxPoint x="160" y="399" as="sourcePoint" />
            <mxPoint x="180" y="244" as="targetPoint" />
            <Array as="points">
              <mxPoint x="160" y="348.25" />
              <mxPoint x="160" y="243.75" />
            </Array>
          </mxGeometry>
        </mxCell>
        <mxCell id="9gf4I2wVAH5HwH8cdVLE-27" value="Firecrawl" style="text;html=1;align=center;verticalAlign=middle;resizable=0;points=[];autosize=1;strokeColor=none;fillColor=none;" parent="jHUoFnpFTbUiWv8qdNk--2" vertex="1">
          <mxGeometry x="23" y="84" width="70" height="30" as="geometry" />
        </mxCell>
        <mxCell id="9gf4I2wVAH5HwH8cdVLE-31" value="&lt;font style=&quot;font-size: 8px;&quot;&gt;Initial Desc&lt;/font&gt;" style="text;html=1;align=center;verticalAlign=middle;resizable=0;points=[];autosize=1;strokeColor=none;fillColor=none;" parent="jHUoFnpFTbUiWv8qdNk--2" vertex="1">
          <mxGeometry x="232" y="74" width="60" height="30" as="geometry" />
        </mxCell>
        <mxCell id="9gf4I2wVAH5HwH8cdVLE-32" value="&lt;font style=&quot;font-size: 8px;&quot;&gt;Rewrite 1&lt;/font&gt;" style="text;html=1;align=center;verticalAlign=middle;resizable=0;points=[];autosize=1;strokeColor=none;fillColor=none;" parent="jHUoFnpFTbUiWv8qdNk--2" vertex="1">
          <mxGeometry x="229" y="158" width="60" height="30" as="geometry" />
        </mxCell>
        <mxCell id="9gf4I2wVAH5HwH8cdVLE-33" value="&lt;font style=&quot;font-size: 8px;&quot;&gt;Rewrite 2&lt;/font&gt;" style="text;html=1;align=center;verticalAlign=middle;resizable=0;points=[];autosize=1;strokeColor=none;fillColor=none;" parent="jHUoFnpFTbUiWv8qdNk--2" vertex="1">
          <mxGeometry x="231" y="252" width="60" height="30" as="geometry" />
        </mxCell>
        <mxCell id="9gf4I2wVAH5HwH8cdVLE-34" value="&lt;font style=&quot;font-size: 8px;&quot;&gt;Grader&lt;/font&gt;" style="text;html=1;align=center;verticalAlign=middle;resizable=0;points=[];autosize=1;strokeColor=none;fillColor=none;" parent="jHUoFnpFTbUiWv8qdNk--2" vertex="1">
          <mxGeometry x="199" y="339" width="50" height="30" as="geometry" />
        </mxCell>
        <mxCell id="yirHqXvrX9kjXxY1m1HK-1" value="" style="shape=image;verticalLabelPosition=bottom;labelBackgroundColor=default;verticalAlign=top;aspect=fixed;imageAspect=0;image=https://i.pinimg.com/originals/2a/62/c3/2a62c34e0d217a7aa14645ce114d84b3.png;" parent="jHUoFnpFTbUiWv8qdNk--2" vertex="1">
          <mxGeometry x="240" y="299" width="64" height="64" as="geometry" />
        </mxCell>
        <mxCell id="yirHqXvrX9kjXxY1m1HK-2" value="&lt;font style=&quot;font-size: 8px;&quot;&gt;Highlight&lt;/font&gt;&lt;div&gt;&lt;font style=&quot;font-size: 8px;&quot;&gt;Summary&lt;/font&gt;&lt;/div&gt;" style="text;html=1;align=center;verticalAlign=middle;resizable=0;points=[];autosize=1;strokeColor=none;fillColor=none;" parent="jHUoFnpFTbUiWv8qdNk--2" vertex="1">
          <mxGeometry x="280" y="334" width="60" height="40" as="geometry" />
        </mxCell>
        <mxCell id="jHUoFnpFTbUiWv8qdNk--17" value="&lt;span id=&quot;docs-internal-guid-831abaa0-7fff-df65-f92a-815316746b94&quot; style=&quot;font-weight:normal;&quot;&gt;&lt;span style=&quot;font-family: Arial, sans-serif; color: rgb(0, 0, 0); background-color: transparent; font-weight: 700; font-variant-numeric: normal; font-variant-east-asian: normal; font-variant-alternates: normal; font-variant-position: normal; vertical-align: baseline; white-space-collapse: preserve;&quot;&gt;&lt;font style=&quot;font-size: 8px;&quot;&gt;supplier_ai_descriptions&lt;/font&gt;&lt;/span&gt;&lt;/span&gt;" style="sketch=0;outlineConnect=0;fontColor=#232F3E;gradientColor=none;strokeColor=#ffffff;fillColor=#232F3E;dashed=0;verticalLabelPosition=middle;verticalAlign=bottom;align=center;html=1;whiteSpace=wrap;fontSize=10;fontStyle=1;spacing=3;shape=mxgraph.aws4.productIcon;prIcon=mxgraph.aws4.s3;" parent="1" vertex="1">
          <mxGeometry x="110" y="430" width="80" height="100" as="geometry" />
        </mxCell>
        <UserObject label="&lt;pre style=&quot;color: rgb(255, 255, 255); font-style: normal; font-variant-ligatures: normal; font-variant-caps: normal; font-weight: 400; letter-spacing: normal; orphans: 2; text-align: start; text-indent: 0px; text-transform: none; widows: 2; word-spacing: 0px; -webkit-text-stroke-width: 0px; text-decoration-thickness: initial; text-decoration-style: initial; text-decoration-color: initial; overflow-wrap: break-word; white-space: pre-wrap;&quot;&gt;www.nickcdryan.com&lt;/pre&gt;" link="&lt;pre style=&quot;color: rgb(255, 255, 255); font-style: normal; font-variant-ligatures: normal; font-variant-caps: normal; font-weight: 400; letter-spacing: normal; orphans: 2; text-align: start; text-indent: 0px; text-transform: none; widows: 2; word-spacing: 0px; -webkit-text-stroke-width: 0px; text-decoration-thickness: initial; text-decoration-style: initial; text-decoration-color: initial; overflow-wrap: break-word; white-space: pre-wrap;&quot;&gt;www.nickcdryan.com&lt;/pre&gt;" id="9gf4I2wVAH5HwH8cdVLE-1">
          <mxCell style="text;whiteSpace=wrap;html=1;" parent="1" vertex="1">
            <mxGeometry x="340" y="120" width="160" height="60" as="geometry" />
          </mxCell>
        </UserObject>
        <mxCell id="9gf4I2wVAH5HwH8cdVLE-6" style="edgeStyle=orthogonalEdgeStyle;rounded=0;orthogonalLoop=1;jettySize=auto;html=1;entryX=1;entryY=0.5;entryDx=0;entryDy=0;strokeColor=#f10c04;fillColor=#f8cecc;dashed=1;" parent="1" source="9gf4I2wVAH5HwH8cdVLE-5" target="9gf4I2wVAH5HwH8cdVLE-3" edge="1">
          <mxGeometry relative="1" as="geometry" />
        </mxCell>
        <mxCell id="9gf4I2wVAH5HwH8cdVLE-11" style="edgeStyle=orthogonalEdgeStyle;rounded=0;orthogonalLoop=1;jettySize=auto;html=1;strokeColor=#f10c04;fillColor=#f8cecc;dashed=1;" parent="1" source="9gf4I2wVAH5HwH8cdVLE-5" target="9gf4I2wVAH5HwH8cdVLE-7" edge="1">
          <mxGeometry relative="1" as="geometry" />
        </mxCell>
        <mxCell id="9gf4I2wVAH5HwH8cdVLE-12" style="edgeStyle=orthogonalEdgeStyle;rounded=0;orthogonalLoop=1;jettySize=auto;html=1;entryX=1;entryY=0.5;entryDx=0;entryDy=0;strokeColor=#f10c04;fillColor=#f8cecc;dashed=1;" parent="1" source="9gf4I2wVAH5HwH8cdVLE-5" target="9gf4I2wVAH5HwH8cdVLE-9" edge="1">
          <mxGeometry relative="1" as="geometry" />
        </mxCell>
        <mxCell id="9gf4I2wVAH5HwH8cdVLE-5" value="&lt;span id=&quot;docs-internal-guid-0ae17b5f-7fff-26e4-9a91-f90729d880d9&quot; style=&quot;font-weight:normal;&quot;&gt;&lt;span style=&quot;font-family: Arial, sans-serif; color: rgb(255, 0, 0); background-color: transparent; font-weight: 700; font-variant-numeric: normal; font-variant-east-asian: normal; font-variant-alternates: normal; font-variant-position: normal; vertical-align: baseline; white-space-collapse: preserve;&quot;&gt;&lt;font style=&quot;font-size: 6px;&quot;&gt;supplier_description_prompts&lt;/font&gt;&lt;/span&gt;&lt;/span&gt;" style="sketch=0;outlineConnect=0;fontColor=#232F3E;gradientColor=none;strokeColor=#ffffff;fillColor=#232F3E;dashed=0;verticalLabelPosition=middle;verticalAlign=bottom;align=center;html=1;whiteSpace=wrap;fontSize=10;fontStyle=1;spacing=3;shape=mxgraph.aws4.productIcon;prIcon=mxgraph.aws4.s3;" parent="1" vertex="1">
          <mxGeometry x="600" y="392" width="80" height="100" as="geometry" />
        </mxCell>
        <mxCell id="9gf4I2wVAH5HwH8cdVLE-15" style="edgeStyle=orthogonalEdgeStyle;rounded=0;orthogonalLoop=1;jettySize=auto;html=1;exitX=0;exitY=0.5;exitDx=0;exitDy=0;strokeColor=#1F17FF;" parent="1" source="jHUoFnpFTbUiWv8qdNk--9" target="jHUoFnpFTbUiWv8qdNk--17" edge="1">
          <mxGeometry relative="1" as="geometry" />
        </mxCell>
        <mxCell id="9gf4I2wVAH5HwH8cdVLE-25" value="" style="endArrow=none;dashed=1;html=1;dashPattern=1 3;strokeWidth=2;rounded=0;" parent="1" edge="1">
          <mxGeometry width="50" height="50" relative="1" as="geometry">
            <mxPoint x="250" y="360" as="sourcePoint" />
            <mxPoint x="330" y="360" as="targetPoint" />
          </mxGeometry>
        </mxCell>
        <mxCell id="9gf4I2wVAH5HwH8cdVLE-29" style="edgeStyle=orthogonalEdgeStyle;rounded=0;orthogonalLoop=1;jettySize=auto;html=1;exitX=0;exitY=0.75;exitDx=0;exitDy=0;exitPerimeter=0;strokeColor=#1F17FF;" parent="1" source="jHUoFnpFTbUiWv8qdNk--14" target="jHUoFnpFTbUiWv8qdNk--17" edge="1">
          <mxGeometry relative="1" as="geometry">
            <Array as="points">
              <mxPoint x="210" y="344" />
              <mxPoint x="210" y="400" />
              <mxPoint x="150" y="400" />
            </Array>
          </mxGeometry>
        </mxCell>
        <mxCell id="9gf4I2wVAH5HwH8cdVLE-30" value="&lt;font style=&quot;font-size: 8px;&quot;&gt;create&lt;/font&gt;" style="text;html=1;align=center;verticalAlign=middle;resizable=0;points=[];autosize=1;strokeColor=none;fillColor=none;" parent="1" vertex="1">
          <mxGeometry x="170" y="378" width="40" height="26" as="geometry" />
        </mxCell>
        <mxCell id="9gf4I2wVAH5HwH8cdVLE-35" style="edgeStyle=orthogonalEdgeStyle;rounded=0;orthogonalLoop=1;jettySize=auto;html=1;strokeColor=#1F17FF;" parent="1" source="jHUoFnpFTbUiWv8qdNk--22" target="jHUoFnpFTbUiWv8qdNk--17" edge="1">
          <mxGeometry relative="1" as="geometry" />
        </mxCell>
        <mxCell id="9gf4I2wVAH5HwH8cdVLE-17" style="edgeStyle=orthogonalEdgeStyle;rounded=0;orthogonalLoop=1;jettySize=auto;html=1;strokeColor=#1F17FF;" parent="1" target="jHUoFnpFTbUiWv8qdNk--17" edge="1">
          <mxGeometry relative="1" as="geometry">
            <mxPoint x="150" y="531" as="targetPoint" />
            <mxPoint x="410" y="622" as="sourcePoint" />
            <Array as="points">
              <mxPoint x="390" y="622" />
              <mxPoint x="390" y="690" />
              <mxPoint x="150" y="690" />
            </Array>
          </mxGeometry>
        </mxCell>
        <mxCell id="9gf4I2wVAH5HwH8cdVLE-36" value="&lt;div&gt;&lt;font style=&quot;font-size: 6px;&quot;&gt;POST&lt;/font&gt;&lt;/div&gt;&lt;font style=&quot;font-size: 6px;&quot;&gt;supplier_name,&amp;nbsp;&lt;/font&gt;&lt;span style=&quot;font-size: 6px; background-color: initial;&quot;&gt;description,&amp;nbsp;&lt;/span&gt;&lt;span style=&quot;font-size: 6px; background-color: initial;&quot;&gt;aws_url,&lt;/span&gt;&lt;div&gt;&lt;font style=&quot;font-size: 6px;&quot;&gt;grade,&amp;nbsp;&lt;/font&gt;&lt;span style=&quot;font-size: 6px; background-color: initial;&quot;&gt;grade_reason,&amp;nbsp;&lt;/span&gt;&lt;span style=&quot;font-size: 6px; background-color: initial;&quot;&gt;highlight,&lt;/span&gt;&lt;span style=&quot;font-size: 6px; background-color: initial;&quot;&gt;summary&lt;/span&gt;&lt;/div&gt;" style="text;html=1;align=left;verticalAlign=middle;resizable=0;points=[];autosize=1;strokeColor=none;fillColor=none;rotation=0;" parent="1" vertex="1">
          <mxGeometry x="479" y="753" width="126" height="55" as="geometry" />
        </mxCell>
        <mxCell id="yirHqXvrX9kjXxY1m1HK-5" value="" style="endArrow=none;html=1;rounded=0;entryX=0.5;entryY=1;entryDx=0;entryDy=0;strokeColor=#1F17FF;" parent="1" target="yirHqXvrX9kjXxY1m1HK-1" edge="1">
          <mxGeometry width="50" height="50" relative="1" as="geometry">
            <mxPoint x="390" y="690" as="sourcePoint" />
            <mxPoint x="500" y="530" as="targetPoint" />
            <Array as="points">
              <mxPoint x="502" y="690" />
            </Array>
          </mxGeometry>
        </mxCell>
        <mxCell id="yirHqXvrX9kjXxY1m1HK-8" value="" style="endArrow=none;html=1;rounded=0;" parent="1" edge="1">
          <mxGeometry width="50" height="50" relative="1" as="geometry">
            <mxPoint x="600" y="560" as="sourcePoint" />
            <mxPoint x="630" y="560" as="targetPoint" />
          </mxGeometry>
        </mxCell>
        <mxCell id="yirHqXvrX9kjXxY1m1HK-9" value="&lt;font style=&quot;font-size: 8px;&quot;&gt;OpenAI&lt;/font&gt;" style="text;html=1;align=center;verticalAlign=middle;resizable=0;points=[];autosize=1;strokeColor=none;fillColor=none;" parent="1" vertex="1">
          <mxGeometry x="623" y="543" width="50" height="30" as="geometry" />
        </mxCell>
        <mxCell id="yirHqXvrX9kjXxY1m1HK-10" value="" style="endArrow=none;html=1;rounded=0;strokeColor=#1F17FF;" parent="1" edge="1">
          <mxGeometry width="50" height="50" relative="1" as="geometry">
            <mxPoint x="600" y="580" as="sourcePoint" />
            <mxPoint x="630" y="580" as="targetPoint" />
          </mxGeometry>
        </mxCell>
        <mxCell id="yirHqXvrX9kjXxY1m1HK-11" value="&lt;font style=&quot;font-size: 8px;&quot;&gt;AWS&lt;/font&gt;" style="text;html=1;align=center;verticalAlign=middle;resizable=0;points=[];autosize=1;strokeColor=none;fillColor=none;" parent="1" vertex="1">
          <mxGeometry x="628" y="563" width="40" height="30" as="geometry" />
        </mxCell>
        <mxCell id="yirHqXvrX9kjXxY1m1HK-12" value="" style="endArrow=none;html=1;rounded=0;strokeColor=#FF3333;" parent="1" edge="1">
          <mxGeometry width="50" height="50" relative="1" as="geometry">
            <mxPoint x="600" y="600" as="sourcePoint" />
            <mxPoint x="630" y="600" as="targetPoint" />
          </mxGeometry>
        </mxCell>
        <mxCell id="yirHqXvrX9kjXxY1m1HK-13" value="&lt;font style=&quot;font-size: 8px;&quot;&gt;DB&lt;/font&gt;" style="text;html=1;align=center;verticalAlign=middle;resizable=0;points=[];autosize=1;strokeColor=none;fillColor=none;" parent="1" vertex="1">
          <mxGeometry x="633" y="583" width="30" height="30" as="geometry" />
        </mxCell>
        <mxCell id="yirHqXvrX9kjXxY1m1HK-14" value="Key" style="text;html=1;align=center;verticalAlign=middle;resizable=0;points=[];autosize=1;strokeColor=none;fillColor=none;" parent="1" vertex="1">
          <mxGeometry x="614" y="530" width="39" height="26" as="geometry" />
        </mxCell>
        <mxCell id="T7VhVrpy8Cs5kFIerB2m-3" style="edgeStyle=orthogonalEdgeStyle;rounded=0;orthogonalLoop=1;jettySize=auto;html=1;exitX=1;exitY=0.5;exitDx=0;exitDy=0;entryX=0;entryY=0.5;entryDx=0;entryDy=0;strokeColor=#FF3333;" parent="1" source="zlr1-RmV3Os9r43MB7re-1" target="T7VhVrpy8Cs5kFIerB2m-2" edge="1">
          <mxGeometry relative="1" as="geometry" />
        </mxCell>
        <mxCell id="zlr1-RmV3Os9r43MB7re-1" value="description" style="shape=datastore;whiteSpace=wrap;html=1;" parent="1" vertex="1">
          <mxGeometry x="438" y="805" width="60" height="60" as="geometry" />
        </mxCell>
        <mxCell id="zlr1-RmV3Os9r43MB7re-5" style="edgeStyle=orthogonalEdgeStyle;rounded=0;orthogonalLoop=1;jettySize=auto;html=1;entryX=0;entryY=0.5;entryDx=0;entryDy=0;strokeColor=#FF3333;" parent="1" source="zlr1-RmV3Os9r43MB7re-4" target="zlr1-RmV3Os9r43MB7re-1" edge="1">
          <mxGeometry relative="1" as="geometry" />
        </mxCell>
        <mxCell id="zlr1-RmV3Os9r43MB7re-4" value="" style="shape=actor;whiteSpace=wrap;html=1;" parent="1" vertex="1">
          <mxGeometry x="300" y="805" width="40" height="60" as="geometry" />
        </mxCell>
        <mxCell id="zlr1-RmV3Os9r43MB7re-6" value="&lt;div&gt;&lt;font style=&quot;font-size: 6px;&quot;&gt;PUT&lt;/font&gt;&lt;/div&gt;&lt;div&gt;&lt;font style=&quot;font-size: 6px;&quot;&gt;description_human,&amp;nbsp;&lt;/font&gt;&lt;/div&gt;&lt;div&gt;&lt;font style=&quot;font-size: 6px;&quot;&gt;highlight_human,&amp;nbsp;&lt;/font&gt;&lt;/div&gt;&lt;div&gt;&lt;span style=&quot;font-size: 6px; background-color: initial;&quot;&gt;summary_human&lt;/span&gt;&lt;/div&gt;" style="text;html=1;align=left;verticalAlign=middle;resizable=0;points=[];autosize=1;strokeColor=none;fillColor=none;rotation=0;" parent="1" vertex="1">
          <mxGeometry x="344" y="770" width="72" height="70" as="geometry" />
        </mxCell>
        <mxCell id="T7VhVrpy8Cs5kFIerB2m-6" style="edgeStyle=orthogonalEdgeStyle;rounded=0;orthogonalLoop=1;jettySize=auto;html=1;exitX=1;exitY=0.5;exitDx=0;exitDy=0;strokeColor=#FF3333;" parent="1" source="T7VhVrpy8Cs5kFIerB2m-2" target="T7VhVrpy8Cs5kFIerB2m-4" edge="1">
          <mxGeometry relative="1" as="geometry" />
        </mxCell>
        <mxCell id="T7VhVrpy8Cs5kFIerB2m-2" value="JSON Parser" style="rounded=0;whiteSpace=wrap;html=1;" parent="1" vertex="1">
          <mxGeometry x="536" y="805" width="52" height="60" as="geometry" />
        </mxCell>
        <mxCell id="T7VhVrpy8Cs5kFIerB2m-4" value="" style="shape=umlActor;verticalLabelPosition=bottom;verticalAlign=top;html=1;outlineConnect=0;" parent="1" vertex="1">
          <mxGeometry x="625" y="805" width="30" height="60" as="geometry" />
        </mxCell>
        <mxCell id="m8NT_NiFbOsxPsSB8WM--1" value="" style="shape=image;verticalLabelPosition=bottom;labelBackgroundColor=default;verticalAlign=top;aspect=fixed;imageAspect=0;image=https://images.saasworthy.com/retool_5500_logo_1620816467_h0klz.png;" parent="1" vertex="1">
          <mxGeometry x="131" y="282.99999999999994" width="27" height="26.83" as="geometry" />
        </mxCell>
        <mxCell id="m8NT_NiFbOsxPsSB8WM--4" style="edgeStyle=orthogonalEdgeStyle;rounded=0;orthogonalLoop=1;jettySize=auto;html=1;exitX=1;exitY=0.5;exitDx=0;exitDy=0;entryX=0;entryY=0.5;entryDx=0;entryDy=0;entryPerimeter=0;strokeColor=#FF3333;" parent="1" source="m8NT_NiFbOsxPsSB8WM--1" target="jHUoFnpFTbUiWv8qdNk--14" edge="1">
          <mxGeometry relative="1" as="geometry">
            <Array as="points">
              <mxPoint x="224" y="296" />
              <mxPoint x="224" y="337" />
            </Array>
          </mxGeometry>
        </mxCell>
        <mxCell id="m8NT_NiFbOsxPsSB8WM--6" value="&lt;font style=&quot;font-size: 8px;&quot;&gt;hotel info csv&lt;/font&gt;" style="text;html=1;align=center;verticalAlign=middle;resizable=0;points=[];autosize=1;strokeColor=none;fillColor=none;" parent="1" vertex="1">
          <mxGeometry x="162" y="277" width="65" height="26" as="geometry" />
        </mxCell>
        <mxCell id="m8NT_NiFbOsxPsSB8WM--8" value="&lt;font style=&quot;font-size: 8px;&quot;&gt;currently out of scope&lt;/font&gt;" style="text;html=1;align=center;verticalAlign=middle;resizable=0;points=[];autosize=1;strokeColor=none;fillColor=none;" parent="1" vertex="1">
          <mxGeometry x="586" y="362" width="94" height="26" as="geometry" />
        </mxCell>
        <mxCell id="JJVJ3zs6qaF_fTZgvXQn-2" style="edgeStyle=orthogonalEdgeStyle;rounded=0;orthogonalLoop=1;jettySize=auto;html=1;entryX=0.5;entryY=0;entryDx=0;entryDy=0;strokeColor=#FF3333;" edge="1" parent="1" source="JJVJ3zs6qaF_fTZgvXQn-1" target="zlr1-RmV3Os9r43MB7re-1">
          <mxGeometry relative="1" as="geometry" />
        </mxCell>
        <mxCell id="JJVJ3zs6qaF_fTZgvXQn-1" value="" style="shape=image;verticalLabelPosition=bottom;labelBackgroundColor=default;verticalAlign=top;aspect=fixed;imageAspect=0;image=https://images.saasworthy.com/retool_5500_logo_1620816467_h0klz.png;" vertex="1" parent="1">
          <mxGeometry x="454.5" y="760.9999999999999" width="27" height="26.83" as="geometry" />
        </mxCell>
        <mxCell id="JJVJ3zs6qaF_fTZgvXQn-3" style="edgeStyle=orthogonalEdgeStyle;rounded=0;orthogonalLoop=1;jettySize=auto;html=1;entryX=0.5;entryY=0;entryDx=0;entryDy=0;" edge="1" parent="1" source="9gf4I2wVAH5HwH8cdVLE-13" target="JJVJ3zs6qaF_fTZgvXQn-1">
          <mxGeometry relative="1" as="geometry" />
        </mxCell>
        <mxCell id="JJVJ3zs6qaF_fTZgvXQn-4" style="edgeStyle=orthogonalEdgeStyle;rounded=0;orthogonalLoop=1;jettySize=auto;html=1;entryX=0.5;entryY=0;entryDx=0;entryDy=0;" edge="1" parent="1" source="yirHqXvrX9kjXxY1m1HK-1" target="JJVJ3zs6qaF_fTZgvXQn-1">
          <mxGeometry relative="1" as="geometry" />
        </mxCell>
        <mxCell id="JJVJ3zs6qaF_fTZgvXQn-5" value="&lt;font style=&quot;font-size: 8px;&quot;&gt;descriptions csv&lt;/font&gt;" style="text;html=1;align=center;verticalAlign=middle;resizable=0;points=[];autosize=1;strokeColor=none;fillColor=none;" vertex="1" parent="1">
          <mxGeometry x="461" y="699" width="75" height="26" as="geometry" />
        </mxCell>
      </root>
    </mxGraphModel>
  </diagram>
</mxfile>
